<?xml version="1.0" encoding="utf-8"?>
<!-- Generator: Adobe Illustrator 27.0.0, SVG Export Plug-In . SVG Version: 6.00 Build 0)  -->
<svg version="1.1" id="Artwork" xmlns="http://www.w3.org/2000/svg" xmlns:xlink="http://www.w3.org/1999/xlink" x="0px" y="0px"
	 viewBox="0 0 361 361" style="enable-background:new 0 0 361 361;" xml:space="preserve">
<style type="text/css">
	.st0{fill-rule:evenodd;clip-rule:evenodd;fill:url(#SVGID_1_);}
	.st1{fill:#FFFFFF;}
</style>
<g id="Layer_5">
</g>
<g>
	<linearGradient id="SVGID_1_" gradientUnits="userSpaceOnUse" x1="180" y1="359.9916" x2="180" y2="-9.094947e-13">
		<stop  offset="0" style="stop-color:#FF5500"/>
		<stop  offset="0.6663" style="stop-color:#FF701F"/>
		<stop  offset="1" style="stop-color:#FFBF7B"/>
	</linearGradient>
	<path class="st0" d="M360,112.6c0-4.3,0-8.6,0-12.9c0-3.6-0.1-7.2-0.2-10.9c-0.2-7.9-0.7-15.8-2.1-23.6c-1.4-7.9-3.8-15.3-7.4-22.5
		c-3.6-7.1-8.3-13.5-13.9-19.1c-5.6-5.6-12.1-10.3-19.1-13.9c-7.2-3.7-14.6-6-22.5-7.4C287,0.9,279,0.4,271.2,0.2
		c-3.6-0.1-7.2-0.1-10.9-0.2c-4.3,0-8.6,0-12.9,0H112.6c-4.3,0-8.6,0-12.9,0c-3.6,0-7.2,0.1-10.9,0.2C81,0.4,73,0.9,65.2,2.3
		C57.3,3.7,49.9,6,42.7,9.7c-7.1,3.6-13.5,8.3-19.1,13.9S13.3,35.7,9.7,42.7c-3.7,7.2-6,14.6-7.4,22.5C0.9,73,0.4,81,0.2,88.9
		C0.1,92.5,0,96.1,0,99.7c0,4.3,0,8.6,0,12.9v134.8c0,4.3,0,8.6,0,12.9c0,3.6,0.1,7.2,0.2,10.9c0.2,7.9,0.7,15.8,2.1,23.6
		c1.4,7.9,3.8,15.3,7.4,22.5c3.6,7.1,8.3,13.5,13.9,19.1c5.6,5.6,12.1,10.3,19.1,13.9c7.2,3.7,14.6,6,22.5,7.4
		c7.8,1.4,15.8,1.9,23.7,2.1c3.6,0.1,7.2,0.1,10.9,0.2c4.3,0,8.6,0,12.9,0h134.8c4.3,0,8.6,0,12.9,0c3.6,0,7.2-0.1,10.9-0.2
		c7.9-0.2,15.9-0.7,23.6-2.1c7.9-1.4,15.3-3.8,22.5-7.4c7.1-3.6,13.5-8.3,19.1-13.9c5.6-5.6,10.3-12.1,13.9-19.1
		c3.7-7.2,6-14.6,7.4-22.5c1.4-7.8,1.9-15.8,2.1-23.6c0.1-3.6,0.1-7.2,0.2-10.9c0-4.3,0-8.6,0-12.9L360,112.6L360,112.6z"/>
</g>
<g>
	<path class="st1" d="M305.7,200.5c-2.8,17.2-17.4,29.8-34.8,29.8c-28.3,0-56.7,0-85,0c-5.1,0-7.9-2.8-7.9-7.9c0-30.2,0-60.5,0-90.7
		c0-3.7,1.5-6.3,4.8-8.1c4.8-2.7,10-4,15.4-4.8c0.7-0.1,1.4-0.3,2.1-0.5c4.3,0,8.7,0,13,0c0.5,0.2,0.9,0.4,1.4,0.5
		c20.3,3.2,35,14,44.1,32.5c1.8,3.7,2.9,7.7,4.4,11.7c0.1,0,0.3,0.1,0.4,0c20.8-4.4,38.7,7.9,42.1,28.8
		C305.8,192.1,305.8,200,305.7,200.5z"/>
	<path class="st1" d="M57.3,178.5c0.2-1.1,0.3-2.2,0.8-3.1c0.5-0.8,1.5-1.8,2.3-1.9c0.8,0,2.1,1,2.3,1.8c1.9,7.4,4.4,14.8,3.1,22.7
		c-1,5.9-1.8,11.7-3,17.6c-0.2,1.1-1.3,2.8-2.3,3c-1.9,0.4-2.3-1.5-2.6-3c-0.9-6.4-1.8-12.8-2.7-19.1
		C55.1,196,56.4,182.9,57.3,178.5z"/>
	<path class="st1" d="M158.4,187.6c1.2-15.9,2.5-32.3,3.7-48.6c0.2-2,1-3.4,3.2-3.4c2,0,2.9,1.3,3,3.3c1.4,17.4,3.3,34.8,4,52.3
		c0.3,8.7-1.4,17.5-2.3,26.2c-0.4,3.7-1.1,7.4-1.7,11.2c-0.3,1.9-1.5,2.5-3.2,2.4c-1.6,0-2.7-0.7-2.9-2.5
		c-1.3-11.5-2.5-22.9-3.7-34.4C158.2,192,158.4,190,158.4,187.6z"/>
	<path class="st1" d="M123.1,186.5c1-11.8,2.2-26.1,3.4-40.3c0.2-1.8,1-3.1,2.9-3.2c2-0.1,3,1.3,3.1,3.2c1.3,15.1,3.1,30.2,3.8,45.3
		c0.3,7.9-1.2,16-2,24c-0.4,4.2-1.2,8.5-1.8,12.7c-0.2,1.7-1.1,2.8-2.9,2.8c-1.9,0-2.8-1-3-2.7C124.8,215.1,122.8,202.1,123.1,186.5
		z"/>
	<path class="st1" d="M140.6,192.4c1.2-13.7,2.4-27.5,3.6-41.3c0-0.3,0.1-0.5,0.1-0.7c0.2-1.8,1-3.1,2.9-3.2
		c2.1-0.1,2.9,1.4,3.1,3.2c0.8,6.9,1.5,13.8,2.2,20.7c0.5,5.5,1.5,11,1.4,16.5c-0.1,8.5-0.9,17-1.6,25.5c-0.4,4.6-1.2,9.1-1.8,13.7
		c-0.1,0.4-0.1,0.8-0.2,1.2c-0.3,1.8-1.2,2.9-3.1,2.8c-1.9,0-2.7-1.2-2.9-2.9c-0.8-6.4-1.6-12.8-2.3-19.2
		C141.5,203.4,141.1,198,140.6,192.4z"/>
	<path class="st1" d="M119.4,192.3c-0.6,5.5-1.3,12.7-2.1,19.8c-0.6,5.3-1.5,10.6-2.2,15.9c-0.2,1.7-1,2.8-2.9,2.8
		c-1.9,0-2.9-1.1-3.2-2.9c-2.6-18.6-4.6-37.2-1.9-56c0.8-5.6,1.2-11.3,1.8-17c0.1-0.5,0.1-1,0.2-1.5c0.3-1.9,0.8-3.8,3.2-3.7
		c2.4,0.1,2.8,2,3,3.9c0.5,4.2,1,8.5,1.5,12.7C117.7,174.5,118.5,182.6,119.4,192.3z"/>
	<path class="st1" d="M101.3,192.5c-1.1,10.2-2.1,19.3-3.1,28.4c-0.3,2.2-0.5,4.5-0.8,6.7c-0.2,1.7-0.8,3.2-2.8,3.2
		c-2,0-2.6-1.4-2.8-3.2c-1.1-11.1-2.9-22.1-3-33.2c-0.1-8,1.9-16.1,3.1-24.1c0.1-0.9,1.8-2.3,2.7-2.2c0.9,0,2.5,1.3,2.7,2.3
		C98.8,178,100.1,185.8,101.3,192.5z"/>
	<path class="st1" d="M83.6,192.4c-0.9,8.2-2,16.9-3,25.6c-0.3,2.2-0.5,4.3-0.8,6.5c-0.2,1.7-1.1,2.9-2.9,2.9c-1.7,0-2.5-1-2.7-2.7
		c-1.1-11-3-22-3.1-33c-0.1-8.4,1.9-16.9,3.2-25.3c0.1-0.8,1.6-1.8,2.6-2c1.7-0.4,2.6,0.8,2.9,2.4c1,6.3,2.1,12.5,3.1,18.8
		C83.2,187.7,83.3,189.8,83.6,192.4z"/>
</g>
<g id="sGmhQ3_00000002353722531789975400000003223562139039402938_">
	
		<image style="overflow:visible;" width="52" height="52" id="sGmhQ3" xlink:href="BEF7F13BD67DCC8F.png"  transform="matrix(1 0 0 1 -192.6864 109.5295)">
	</image>
</g>
</svg>
