<?xml version="1.0" encoding="utf-8"?>
<!-- Generator: Adobe Illustrator 27.0.0, SVG Export Plug-In . SVG Version: 6.00 Build 0)  -->
<svg version="1.1" id="Artwork" xmlns="http://www.w3.org/2000/svg" xmlns:xlink="http://www.w3.org/1999/xlink" x="0px" y="0px"
	 viewBox="0 0 361 361" style="enable-background:new 0 0 361 361;" xml:space="preserve">
<style type="text/css">
	.st0{fill-rule:evenodd;clip-rule:evenodd;fill:#FFFFFF;}
	.st1{fill:#FF0000;}
	.st2{fill:#FFFFFF;}
</style>
<g id="Layer_5">
</g>
<g>
	<path class="st0" d="M360,112.6c0-4.3,0-8.6,0-12.9c0-3.6-0.1-7.2-0.2-10.9c-0.2-7.9-0.7-15.8-2.1-23.6c-1.4-7.9-3.8-15.3-7.4-22.5
		c-3.6-7.1-8.3-13.5-13.9-19.1c-5.6-5.6-12.1-10.3-19.1-13.9c-7.2-3.7-14.6-6-22.5-7.4C287,0.9,279,0.4,271.2,0.2
		c-3.6-0.1-7.2-0.1-10.9-0.2c-4.3,0-8.6,0-12.9,0H112.6c-4.3,0-8.6,0-12.9,0c-3.6,0-7.2,0.1-10.9,0.2C81,0.4,73,0.9,65.2,2.3
		C57.3,3.7,49.9,6,42.7,9.7c-7.1,3.6-13.5,8.3-19.1,13.9S13.3,35.7,9.7,42.7c-3.7,7.2-6,14.6-7.4,22.5C0.9,73,0.4,81,0.2,88.9
		C0.1,92.5,0,96.1,0,99.7c0,4.3,0,8.6,0,12.9v134.8c0,4.3,0,8.6,0,12.9c0,3.6,0.1,7.2,0.2,10.9c0.2,7.9,0.7,15.8,2.1,23.6
		c1.4,7.9,3.8,15.3,7.4,22.5c3.6,7.1,8.3,13.5,13.9,19.1c5.6,5.6,12.1,10.3,19.1,13.9c7.2,3.7,14.6,6,22.5,7.4
		c7.8,1.4,15.8,1.9,23.7,2.1c3.6,0.1,7.2,0.1,10.9,0.2c4.3,0,8.6,0,12.9,0h134.8c4.3,0,8.6,0,12.9,0c3.6,0,7.2-0.1,10.9-0.2
		c7.9-0.2,15.9-0.7,23.6-2.1c7.9-1.4,15.3-3.8,22.5-7.4c7.1-3.6,13.5-8.3,19.1-13.9c5.6-5.6,10.3-12.1,13.9-19.1
		c3.7-7.2,6-14.6,7.4-22.5c1.4-7.8,1.9-15.8,2.1-23.6c0.1-3.6,0.1-7.2,0.2-10.9c0-4.3,0-8.6,0-12.9L360,112.6L360,112.6z"/>
</g>
<g>
	<path class="st1" d="M276.5,132.3c-2.3-8.6-9.1-15.4-17.7-17.7c-15.6-4.2-78.3-4.2-78.3-4.2s-62.6,0-78.3,4.2
		c-8.6,2.3-15.4,9.1-17.7,17.7c-4.2,15.6-4.2,48.2-4.2,48.2s0,32.6,4.2,48.2c2.3,8.6,9.1,15.4,17.7,17.7c15.6,4.2,78.3,4.2,78.3,4.2
		s62.6,0,78.3-4.2c8.6-2.3,15.4-9.1,17.7-17.7c4.2-15.6,4.2-48.2,4.2-48.2S280.7,147.9,276.5,132.3z"/>
	<polygon class="st2" points="160.5,210.5 212.5,180.5 160.5,150.5 	"/>
</g>
</svg>
